<?xml version="1.0" encoding="utf-8"?>
<!-- Generator: Adobe Illustrator 23.0.1, SVG Export Plug-In . SVG Version: 6.00 Build 0)  -->
<svg version="1.1" id="Calque_1" xmlns="http://www.w3.org/2000/svg" xmlns:xlink="http://www.w3.org/1999/xlink" x="0px" y="0px"
	 viewBox="0 0 963.8 481.9" style="enable-background:new 0 0 963.8 481.9;" xml:space="preserve">
<style type="text/css">
	.st0{fill:#FFFFFF;}
</style>
<title>logo-pepite</title>
<g>
	<path class="st0" d="M449.8,209.6c9.2-0.1,17-7.6,17-16.6c1.4-9.1-9.5-17.2-16.6-17.1c-8.5,0.1-16.5,8.1-16.6,16.8
		S441.4,209.7,449.8,209.6z"/>
	<path class="st0" d="M193.9,207.4c22.6-6.5,71.5-30.1,73-49.6c0.3-4-17.7-15.5-23.4-9.1c-11,12.3-21.9,22.7-61,35.5
		C173.5,187.1,187.9,209.1,193.9,207.4z"/>
	<path class="st0" d="M762.2,291c-7.3-23.8-17.5-43-32.8-66.9c-1.4-1.8-3.4-3.1-5.7-3.4c-6.8-0.4-13.7,0-20.5-0.2
		c-3.6-0.1-5.1,1.5-6.2,4.7c-6,17.7-8.2,31.7-14.9,49.1c-17.5,45.4-31.1,61.9-37.1,68.8c-1.1,1.3-2.3,2.5-3.5,3.8
		c-6.7,6.6-15.1,12.6-24.9,14.8c-8.1,1.8-18.8-0.2-22.3-7.7c-2.2-4.6-3.6-9.6-4.2-14.7c-0.4-3.3,0.7-4.7,3.6-5.7
		c4.5-1.5,9-3.3,13.4-5.2c28.4-12.7,48.2-32.2,51.6-64.9c2.9-27.6-16.9-44.9-40.6-41.8c-15.5,2-27.4,10.6-36.6,22.8
		c-17.3,23-23.8,49.7-24.3,77.9c-0.2,13.3-5.4,21.7-13.5,32.1c-6.4,8.2-15.3,5-16.6-0.5c-1.2-6.1-1.5-12.3-0.6-18.5
		c1.8-16.3,4.4-32.5,7-48.7c3-18.5,6.6-37,9.8-55.5c0.6-3.8,2.5-4.9,6-4.8c5.7,0.2,11.4,0.2,17.2-0.2c2-0.2,5-1.7,5.5-3.3
		c1.9-6.4,3.4-12.8,4.6-19.3c0.8-3.9-1-6-5.1-6c-4.4,0-8.9,0-13.3,0c-8,0-8.8-1.1-7.3-9.2c1.5-7.4,3-14.8,4.4-22.3
		c1-5.7-0.1-7.1-5.7-7.3s-11.1,0.1-16.6-0.1c-4.1-0.1-6.1,1.9-6.8,5.7c-1.6,9.1-3.3,18.1-4.8,27.2c-0.6,3.9-2.4,6-6.5,5.9
		c-5.5-0.1-11.1,0.1-16.6,0c-4-0.1-6.2,1.7-6.9,5.6c-0.9,5.3-1.8,10.5-2.9,15.8c-1.4,6.7-0.9,7.4,6,7.4c6.4,0.1,12.8,0,19.5,0
		c-0.1,2.3-0.1,3.5-0.3,4.8c-2.3,12.4-4.7,24.8-7,37.2c-2.1,5.2-4.1,10.4-6.3,15.6c-8.6,20.6-19.3,40.3-32,58.7
		c-3.9,5.6-8.6,10.6-13.8,15c-6,5.2-11.5,3.2-13-4.4c-2.8-14.5,5.2-52.8,9-73.1c3.1-16.5,7.1-32.8,10.8-49.2c1-4.5-0.4-6-5.1-5.7
		c-5.7,0.3-11.4,0.2-17.1-0.3c-4.4-0.4-6.8,1.4-7.7,5.3c-1.1,4.5-1.8,9-3,13.5c-7.2,27.3-14.1,54.6-17.7,82.6
		c-11,52.6-35.9,30.5-35.9,26.6c1.2-2.1,1.2-2,2.3-4.2c8.5-16.3,12.4-33.9,13.5-52.1c1-15.9,0.9-31.8-5-47
		c-9.2-23.6-30.8-34.4-53.9-24.4c-4,1.7-7.9,3.6-11.9,5.5c-2.1-7.8-2.2-7.9-9.9-7.9c-3.5,0-7,0-10.5,0c-8.2,0-8.9,0.4-9.5,8.5
		c-0.1,0.9-4.1,29.6-7.5,54c0,0-10.8,34.9-25.9,53.3c-8.3,10.2-19.8,18.8-35,21.5c-8.2,1.5-18.5-1.2-22-8.7
		c-3.9-8.3-3.7-11.8-4.2-14.7c-0.6-3.2,0.7-4.7,3.6-5.7c4.5-1.6,9-3.3,13.4-5.2c28.4-12.7,44.8-30.1,48.2-62.8
		c2.9-27.6-13.5-47.1-37.2-43.9c-15.5,2-27.4,10.6-36.6,22.8c-17.3,23-19.1,46.2-19.6,74.4c-0.2,13.3-8,27.2-19.3,38.6
		c-8,8-16.5,6-21.9,0.6c1.3-2.2,2.6-4.5,3.9-6.9c8.5-16.3,12.4-33.9,13.5-52.1c1-15.9,0.9-31.8-5-47c-9.2-23.6-30.8-34.4-53.9-24.4
		c-4,1.7-7.9,3.6-11.9,5.5c-2.1-7.8-2.2-7.9-9.9-7.9c-3.5,0-7,0-10.5,0c-8.2,0-8.9,0.4-9.4,8.5c-0.1,1.5-11.2,80.5-12.1,87.6
		c-1.9,14.1-3.7,28.1-5.6,42.2c-2.5,18.4-5.1,36.8-7.6,55.3c-2.3,16.8-4.4,33.6-6.8,50.3c-0.6,4,1.6,5,4.6,5.1
		c5.7,0.2,11.4,0.1,17.2,0.1c6.3,0,7.5-1.5,8.2-7.8c2.9-24.5,5.8-49,8.9-73.5c0.4-2,0.9-3.9,1.5-5.8c9.8,5.1,19.6,6.5,29.6,4.6
		c11.1-2.2,21.9-8,29.6-14.4c8.3,11.3,29.5,19.2,46.7,7.9c5.1-3.4,9.7-7.7,14.6-14.9c1.8,2.4,1.3,1.8,2.4,3.2
		c7,8.4,14.9,15.5,26.3,16.9c19.7,2.5,38.2-4.2,53.5-16.1c1.5-1.2,12-5.7,18.6-12.8c-0.1,1.1-5.2,38.7-7.8,57.1
		c-2.3,16.8-4.4,33.6-6.8,50.3c-0.6,4,1.6,5,4.6,5.1c5.7,0.2,11.4,0.1,17.2,0.1c6.3,0,7.5-1.5,8.2-7.8c2.9-24.5,5.8-49,8.9-73.5
		c0.3-1.9,0.8-3.8,1.4-5.7c9.8,5.1,19.5,5.7,29.6,4.6c15.3-1.7,28.2-14.4,28.2-14.4c23.5,24.9,47.3,18,60.3,1.3
		c10.4,17.1,35.8,21.9,51.4,9.5c10.9-8.7,19.1-19.5,25.8-31.4l1.4-2.5c0,2.9,0.1,5.7,0.2,8.6c1.2,21.1,17.2,34.4,37.6,30
		c7.2-1.5,13.8-4.7,20.8-10.9c3.5-3.1,7.5-7.5,11.1-11.4c1.8,2.4,2.8,3.9,4,5.3c7,8.5,14.9,15.5,26.3,16.9c18,2.3,38.8,0.4,53-9.7
		c0,0,17.6-12.8,26.4-25.3c20-28.4,27.8-48.2,36.5-82.8c0.7-2.8,3.1-14.2,3.8-16.8l1.7-0.1c2,4.5,3.3,8,5.2,12.6
		c7.6,17.8,13.9,37.1,16.7,56.3c1.2,8.5,1.6,16.5-1.6,25.3c-2.4,6.9-6.3,11-13.5,9.9c-3.8-0.4-7.5-1.8-10.6-4
		c-5.6-4.1-16-13.4-17.3-13.2c-2.2,0.3-9.9,13.5-12.3,18.9c-0.5,1.1,0.4,3.4,1.2,4.8c4.9,7.7,11.8,14,19.9,18.2
		c21.1,11.5,47.5,3.7,59-17.3c1.9-3.4,3.3-7.1,4.2-10.9C772.6,334.4,768.6,311.9,762.2,291z M108.9,316.3
		c-7.7,29.2-23.4,49.7-35.1,45.8c-17.3-5.9-9.8-50.3-7.3-59.9c7.7-29.2,23.4-49.7,35.1-45.8S116.5,287.1,108.9,316.3z M206.4,268.7
		c3-4.7,6.6-9.5,11-12.8c2.9-2.1,8.1-2.8,11.6-1.9c4.4,1.2,5.5,6.1,5,10.6c-1.8,17.1-21.4,36.5-39.4,38.3
		C195.1,290,199.8,279,206.4,268.7z M355,316.3c-7.7,29.2-23.4,49.7-35.1,45.8c-17.3-5.9-9.8-50.3-7.3-59.9
		c7.7-29.2,23.4-49.7,35.1-45.8S362.6,287.1,355,316.3z M601.2,270.9c3-4.7,6.6-9.5,11-12.8c2.9-2.1,8.1-2.8,11.6-1.9
		c4.4,1.2,5.5,6.1,5,10.6c-1.8,17.1-21.4,36.5-39.4,38.4C590,292.3,594.6,281.2,601.2,270.9z"/>
	<path class="st0" d="M813.4,38L813.4,38c4-11.3-0.4-23.2-10-27.1c-9.9-3.9-21.6,2.3-26.2,13.8c-0.2,0.4-0.3,0.8-0.4,1.2
		l-48.2,122.4c-0.2,0.4-0.3,0.7-0.5,1.1c-4.5,11.5-0.2,24,9.8,27.9s21.6-2.3,26.2-13.8c0.1-0.2,0.1-0.4,0.2-0.6l0,0L813.4,38z"/>
	<path class="st0" d="M630.4,27.6L630.4,27.6c-3.3-10.2-14.3-15.8-24.5-12.5c-9.9,3.2-15.5,13.5-12.8,23.5c0.1,0.4,0.2,0.7,0.3,1
		l30.1,110.6c0.1,0.4,0.1,0.7,0.2,1c2.8,10.4,13.5,16.5,23.9,13.7c10.4-2.8,16.5-13.5,13.7-23.9c0-0.2-0.1-0.4-0.2-0.5h0L630.4,27.6
		z"/>
	<path class="st0" d="M924.1,143.1L924.1,143.1c9.3-5.3,21.2-2.1,26.6,7.3c5.2,9.1,2.3,20.8-6.7,26.3c-0.3,0.2-0.6,0.3-0.9,0.5
		l-97.4,60.4c-0.3,0.2-0.6,0.4-0.9,0.6c-9.1,5.7-21.2,2.9-26.8-6.3c-5.7-9.1-2.9-21.2,6.3-26.8l0,0c0.2-0.1,0.3-0.2,0.5-0.3l0,0
		L924.1,143.1z"/>
</g>
</svg>
