<svg id="Calque_1" data-name="Calque 1" xmlns="http://www.w3.org/2000/svg" viewBox="0 0 141.73 141.73"><title>picto-son</title><path d="M67,70.87V31.29a7.14,7.14,0,0,0-12.23-5L33.21,48.16a7.09,7.09,0,0,1-5.08,2.13h-14A7.14,7.14,0,0,0,7,57.43V84.3a7.14,7.14,0,0,0,7.14,7.14h14a7.14,7.14,0,0,1,5.08,2.13l21.57,21.89a7.14,7.14,0,0,0,12.23-5Z" style="fill:#fff"/><path d="M91.6,97.71a4.05,4.05,0,0,1-2.86-6.91,28.23,28.23,0,0,0,0-39.87,4,4,0,0,1,5.72-5.72,36.32,36.32,0,0,1,0,51.31A4,4,0,0,1,91.6,97.71Z" style="fill:#fff"/><path d="M115.89,110.7a4,4,0,0,1-2.86-6.91,46.61,46.61,0,0,0,0-65.85,4,4,0,0,1,5.72-5.72,54.71,54.71,0,0,1,0,77.3A4,4,0,0,1,115.89,110.7Z" style="fill:#fff"/></svg>